<svg width="127" height="37" viewBox="0 0 127 37" fill="none" xmlns="http://www.w3.org/2000/svg">
<path d="M13.8 36.35C11.2333 36.35 8.93333 35.9333 6.9 35.1C4.86667 34.2667 3.23333 33.0333 2 31.4C0.8 29.7667 0.166667 27.8 0.1 25.5H9.2C9.33333 26.8 9.78333 27.8 10.55 28.5C11.3167 29.1667 12.3167 29.5 13.55 29.5C14.8167 29.5 15.8167 29.2167 16.55 28.65C17.2833 28.05 17.65 27.2333 17.65 26.2C17.65 25.3333 17.35 24.6167 16.75 24.05C16.1833 23.4833 15.4667 23.0167 14.6 22.65C13.7667 22.2833 12.5667 21.8667 11 21.4C8.73333 20.7 6.88333 20 5.45 19.3C4.01667 18.6 2.78333 17.5667 1.75 16.2C0.716667 14.8333 0.2 13.05 0.2 10.85C0.2 7.58333 1.38333 5.03333 3.75 3.2C6.11667 1.33333 9.2 0.399999 13 0.399999C16.8667 0.399999 19.9833 1.33333 22.35 3.2C24.7167 5.03333 25.9833 7.6 26.15 10.9H16.9C16.8333 9.76667 16.4167 8.88333 15.65 8.25C14.8833 7.58333 13.9 7.25 12.7 7.25C11.6667 7.25 10.8333 7.53333 10.2 8.1C9.56667 8.63333 9.25 9.41666 9.25 10.45C9.25 11.5833 9.78333 12.4667 10.85 13.1C11.9167 13.7333 13.5833 14.4167 15.85 15.15C18.1167 15.9167 19.95 16.65 21.35 17.35C22.7833 18.05 24.0167 19.0667 25.05 20.4C26.0833 21.7333 26.6 23.45 26.6 25.55C26.6 27.55 26.0833 29.3667 25.05 31C24.05 32.6333 22.5833 33.9333 20.65 34.9C18.7167 35.8667 16.4333 36.35 13.8 36.35ZM48.4617 36.35C45.1617 36.35 42.1284 35.5833 39.3617 34.05C36.6284 32.5167 34.4451 30.3833 32.8117 27.65C31.2117 24.8833 30.4117 21.7833 30.4117 18.35C30.4117 14.9167 31.2117 11.8333 32.8117 9.1C34.4451 6.36667 36.6284 4.23333 39.3617 2.7C42.1284 1.16667 45.1617 0.399999 48.4617 0.399999C51.7617 0.399999 54.7784 1.16667 57.5117 2.7C60.2784 4.23333 62.4451 6.36667 64.0117 9.1C65.6117 11.8333 66.4117 14.9167 66.4117 18.35C66.4117 21.7833 65.6117 24.8833 64.0117 27.65C62.4117 30.3833 60.2451 32.5167 57.5117 34.05C54.7784 35.5833 51.7617 36.35 48.4617 36.35ZM48.4617 28.55C51.2617 28.55 53.4951 27.6167 55.1617 25.75C56.8617 23.8833 57.7117 21.4167 57.7117 18.35C57.7117 15.25 56.8617 12.7833 55.1617 10.95C53.4951 9.08333 51.2617 8.15 48.4617 8.15C45.6284 8.15 43.3617 9.06666 41.6617 10.9C39.9951 12.7333 39.1617 15.2167 39.1617 18.35C39.1617 21.45 39.9951 23.9333 41.6617 25.8C43.3617 27.6333 45.6284 28.55 48.4617 28.55ZM79.7184 29.4H90.9184V36H71.1684V0.899999H79.7184V29.4ZM108.146 0.899999C111.846 0.899999 115.08 1.63333 117.846 3.1C120.613 4.56667 122.746 6.63333 124.246 9.3C125.78 11.9333 126.546 14.9833 126.546 18.45C126.546 21.8833 125.78 24.9333 124.246 27.6C122.746 30.2667 120.596 32.3333 117.796 33.8C115.03 35.2667 111.813 36 108.146 36H94.9965V0.899999H108.146ZM107.596 28.6C110.83 28.6 113.346 27.7167 115.146 25.95C116.946 24.1833 117.846 21.6833 117.846 18.45C117.846 15.2167 116.946 12.7 115.146 10.9C113.346 9.1 110.83 8.2 107.596 8.2H103.546V28.6H107.596Z" fill="white"/>
</svg>
